<?xml version="1.0" encoding="UTF-8"?>
<svg width="100" height="30" viewBox="0 0 100 30" fill="none" xmlns="http://www.w3.org/2000/svg">
  <!-- This is a simplified placeholder for the Slalom logo -->
  <path d="M10.5 7.5C14.5 7.5 18.5 7.5 22.5 7.5C22.5 9.5 22.5 11.5 22.5 13.5C18.5 13.5 14.5 13.5 10.5 13.5C10.5 11.5 10.5 9.5 10.5 7.5Z" fill="#0076CE"/>
  <path d="M25.5 7.5C29.5 7.5 33.5 7.5 37.5 7.5C37.5 9.5 37.5 11.5 37.5 13.5C33.5 13.5 29.5 13.5 25.5 13.5C25.5 11.5 25.5 9.5 25.5 7.5Z" fill="#0076CE"/>
  <path d="M40.5 7.5C44.5 7.5 48.5 7.5 52.5 7.5C52.5 9.5 52.5 11.5 52.5 13.5C48.5 13.5 44.5 13.5 40.5 13.5C40.5 11.5 40.5 9.5 40.5 7.5Z" fill="#0076CE"/>
  <path d="M10.5 16.5C14.5 16.5 18.5 16.5 22.5 16.5C22.5 18.5 22.5 20.5 22.5 22.5C18.5 22.5 14.5 22.5 10.5 22.5C10.5 20.5 10.5 18.5 10.5 16.5Z" fill="#0076CE"/>
  <path d="M25.5 16.5C29.5 16.5 33.5 16.5 37.5 16.5C37.5 18.5 37.5 20.5 37.5 22.5C33.5 22.5 29.5 22.5 25.5 22.5C25.5 20.5 25.5 18.5 25.5 16.5Z" fill="#0076CE"/>
  <path d="M55.5 7.5C59.5 7.5 63.5 7.5 67.5 7.5C67.5 9.5 67.5 11.5 67.5 13.5C63.5 13.5 59.5 13.5 55.5 13.5C55.5 11.5 55.5 9.5 55.5 7.5Z" fill="#0076CE"/>
  <path d="M70.5 7.5C74.5 7.5 78.5 7.5 82.5 7.5C82.5 9.5 82.5 11.5 82.5 13.5C78.5 13.5 74.5 13.5 70.5 13.5C70.5 11.5 70.5 9.5 70.5 7.5Z" fill="#0076CE"/>
  <path d="M55.5 16.5C59.5 16.5 63.5 16.5 67.5 16.5C67.5 18.5 67.5 20.5 67.5 22.5C63.5 22.5 59.5 22.5 55.5 22.5C55.5 20.5 55.5 18.5 55.5 16.5Z" fill="#0076CE"/>
</svg>